# xmcd
#
# Track frame offsets: 
#        150
#        15952
#        41338
#        64838
#
# Disc length: 1152 seconds
#
# Revision: 2
# Processed by: cddbd v1.5.2PL0 Copyright (c) Steve Scherf et al.
# Submitted via: ExactAudioCopy v1.0b3
#
DISCID=24047e04
DTITLE=Alexander Veljanov - The Man With The Silver Gun
DYEAR=1998
DGENRE=Acid Punk
TTITLE0=The Man With The Silver Gun (Original)
TTITLE1=The Man With The Silver Gun (Golden Club Mix)
TTITLE2=Lay Down (Extended Version)
TTITLE3=The Man With The Silver Gun (Attica Blues Mix)
EXTD=
EXTT0=
EXTT1=
EXTT2=
EXTT3=
PLAYORDER=
